<?xml version="1.0" encoding="utf-8"?>
<svg version="1.1" xmlns="http://www.w3.org/2000/svg" x="0px" y="0px"
     viewBox="0 0 60 60" style="enable-background:new 0 0 60 60;" xml:space="preserve">
<style type="text/css">
	.st0{fill-rule:evenodd;clip-rule:evenodd;fill-opacity:1.000000e-02;}
	.st1{fill-rule:evenodd;clip-rule:evenodd;fill:#2196F3;}
	.st2{fill:none;stroke:#42A5F5;stroke-width:4;}
	.st3{fill-rule:evenodd;clip-rule:evenodd;fill:#FFFFFF;filter:url(#Adobe_OpacityMaskFilter);}
	.st4{mask:url(#mask0_1_);}
	.st5{fill:none;stroke:#42A5F5;stroke-width:4;stroke-linecap:square;}
	.st6{fill:none;stroke:#42A5F5;stroke-width:4;stroke-linecap:round;stroke-linejoin:round;}
</style>
  <g>
	<path class="st0" d="M30,60c12.2,0,22-9.8,22-22s-9.8-22-22-22S8,25.8,8,38S17.8,60,30,60z"/>
</g>
  <g>
	<path class="st1" d="M30,60c16.6,0,30-13.4,30-30S46.6,0,30,0S0,13.4,0,30S13.4,60,30,60z"/>
    <path class="st2" d="M58,30c0,15.5-12.5,28-28,28S2,45.5,2,30S14.5,2,30,2S58,14.5,58,30z"/>
</g>
  <defs>
	<filter id="Adobe_OpacityMaskFilter" filterUnits="userSpaceOnUse" x="0.7" y="2.5" width="57.8" height="55">
		<feColorMatrix type="matrix" values="1 0 0 0 0  0 1 0 0 0  0 0 1 0 0  0 0 0 1 0"/>
	</filter>
</defs>
  <mask maskUnits="userSpaceOnUse" x="0.7" y="2.5" width="57.8" height="55" id="mask0_1_">
	<path class="st3" d="M30,60c16.6,0,30-13.4,30-30S46.6,0,30,0S0,13.4,0,30S13.4,60,30,60z"/>
</mask>
  <g class="st4">
	<path class="st5" d="M2.7,22.9h53.8"/>
    <path class="st5" d="M2.7,38.6h53.8"/>
    <path class="st6" d="M29.2,4.5c0,0-10,11.6-9.7,26.2c0.2,14.7,9.7,24.8,9.7,24.8"/>
    <path class="st6" d="M30,4.5c0,0,10,11.6,9.7,26.2C39.5,45.4,30,55.5,30,55.5"/>
</g>
</svg>
